<svg id="Layer_1" data-name="Layer 1" xmlns="http://www.w3.org/2000/svg" viewBox="0 0 322.23 154.76"><defs><style>.cls-1{fill:#5ab647;}.cls-2,.cls-5,.cls-6{fill:#ac6f29;}.cls-3{fill:#9bca46;}.cls-4{fill:none;stroke:#5ab647;stroke-miterlimit:10;stroke-width:1.11px;}.cls-5{font-size:16.17px;}.cls-5,.cls-6{font-family:Montserrat-SemiBold, Montserrat;font-weight:600;}.cls-6{font-size:16.17px;}</style></defs><path class="cls-1" d="M53.6,10.77V24.7H33.3v86.78h-13V24.7H0V10.77Z"/><path class="cls-1" d="M85.28,53.88H99.2v57.28H85.28v-3.94a29.12,29.12,0,0,1-14.74,4.09q-1.71,0-7.38-.66t-13-7.76a28.66,28.66,0,0,1-7.48-13,29.43,29.43,0,0,1-.93-7.28,37.77,37.77,0,0,1,1.41-9.12q1.4-5.48,7-11.18A28.55,28.55,0,0,1,67,54.08a30.49,30.49,0,0,1,3.54-.2A28.89,28.89,0,0,1,85.28,58ZM70.45,97.38a14.28,14.28,0,0,0,7.46-2A15.18,15.18,0,0,0,83.27,90a14.77,14.77,0,0,0,0-14.88,15.18,15.18,0,0,0-5.36-5.35A14.84,14.84,0,0,0,63,69.8a15.21,15.21,0,0,0-5.37,5.35,14.84,14.84,0,0,0,0,14.88A15.21,15.21,0,0,0,63,95.38,14.19,14.19,0,0,0,70.45,97.38Z"/><path class="cls-2" d="M197.93,54.08v72a14.25,14.25,0,0,1-2,7.44,15.21,15.21,0,0,1-5.37,5.35,14.84,14.84,0,0,1-14.88,0,15.18,15.18,0,0,1-5.36-5.35l0,0a13.4,13.4,0,0,1-1.77-6.84V82.74a28.72,28.72,0,0,0-8.41-20.31,28.82,28.82,0,0,0-5.51-4.32A28,28,0,0,0,151,56.28a28.78,28.78,0,0,0-22.36,0A28,28,0,0,0,125,58.11V54H111.06v57.32H125V82.74a14.29,14.29,0,0,1,2-7.43A15.23,15.23,0,0,1,132.35,70a14.77,14.77,0,0,1,14.88,0,15.23,15.23,0,0,1,5.37,5.36,14.29,14.29,0,0,1,2,7.43v44.63a23,23,0,0,0,.61,5.54v0a27.55,27.55,0,0,0,1.39,4.2,29.06,29.06,0,0,0,6.15,9.16,28.54,28.54,0,0,0,9.18,6.19,29.15,29.15,0,0,0,11.17,2.27,29.63,29.63,0,0,0,5.36-.5A28.74,28.74,0,0,0,211.85,126v-72Z"/><path class="cls-1" d="M261.19,53.88h13.92v57.28H261.19v-3.94a29.12,29.12,0,0,1-14.73,4.09q-1.72,0-7.39-.66t-13-7.76a28.75,28.75,0,0,1-7.48-13,29.43,29.43,0,0,1-.93-7.28,37.77,37.77,0,0,1,1.41-9.12q1.41-5.48,7-11.18A28.57,28.57,0,0,1,243,54.08a30.2,30.2,0,0,1,3.53-.2A28.86,28.86,0,0,1,261.19,58Zm-14.82,43.5a14.25,14.25,0,0,0,7.45-2A15.21,15.21,0,0,0,259.19,90a14.84,14.84,0,0,0,0-14.88,15.21,15.21,0,0,0-5.37-5.35,14.84,14.84,0,0,0-14.88,0,15.18,15.18,0,0,0-5.36,5.35,14.84,14.84,0,0,0,0,14.88,15.18,15.18,0,0,0,5.36,5.35A14.23,14.23,0,0,0,246.37,97.38Z"/><path class="cls-1" d="M300.9,53.88v57.46H287V53.88Z"/><path class="cls-3" d="M195.15,34.48c.42,2.33,5.17,12,5.17,12S202.68,37,208,29.77c.29-.4-.39-10.09-.08-10.49.18-.22,1.34,8.86,1.53,8.64a36,36,0,0,1,5.26-5.2c.21-.16,1.19-6.9,1.4-7.06s-.41,6.29-.22,6.16a59.28,59.28,0,0,1,9.9-5.33A70.44,70.44,0,0,0,218,21.72l7.22-.48s-8.35,1.46-8.58,1.68a54,54,0,0,0-7.34,9.5c-.2.32,10.31-1.3,10.11-1s-11.12,2.65-11.33,3a49.06,49.06,0,0,0-5.14,12.59c33.44,8.39,33.64-36.23,33.78-47C227.84,12.88,190.29,8.21,195.15,34.48Z"/><circle class="cls-3" cx="293.86" cy="37.4" r="8.9"/><path class="cls-1" d="M183.25,113.89c-5.53-4-9.75-2.32-11.5-1.25v13a11.48,11.48,0,1,0,22.95,0V112.5C193,114.45,188.78,117.86,183.25,113.89Z"/><path class="cls-1" d="M308.36,14.94h-2V14h5.16v1h-2v5.12h-1.12Z"/><path class="cls-1" d="M317.93,20.06V16l-2,3.33h-.5l-2-3.28v4h-1.07V14h.92l2.42,4,2.36-4H319v6.08Z"/><circle class="cls-4" cx="312.67" cy="17.02" r="9.01"/><text class="cls-5" transform="translate(19.96 130.72)">Traditional &amp;</text><text class="cls-6" transform="translate(234.87 127.97)">Organic</text></svg>